<svg width="52" height="52" viewBox="0 0 52 52" fill="none" xmlns="http://www.w3.org/2000/svg">
<path d="M39.6882 14.2078C41.271 14.2078 42.5705 14.5817 43.5868 15.3296C44.6197 16.0579 45.4194 16.7566 45.9858 17.4258C46.0525 17.5045 46.0858 17.5931 46.0858 17.6915C46.0858 17.7505 46.0608 17.8292 46.0108 17.9276C45.9775 18.0064 45.9525 18.0654 45.9359 18.1048C45.8526 18.2426 45.7109 18.4886 45.511 18.8429C45.3278 19.1774 45.1778 19.4235 45.0612 19.5809C45.0112 19.6597 44.9529 19.7482 44.8863 19.8466C44.8363 19.9254 44.7863 19.9844 44.7363 20.0238C44.703 20.0631 44.6447 20.0828 44.5614 20.0828C44.5281 20.0828 44.4448 20.0238 44.3115 19.9057C44.1949 19.7679 44.0782 19.6498 43.9616 19.5514C43.2952 18.8625 42.6454 18.2721 42.0123 17.78C41.3793 17.288 40.7711 17.042 40.188 17.042C39.7215 17.042 39.3384 17.1699 39.0385 17.4258C38.7386 17.6619 38.5886 18.213 38.5886 19.079C38.5886 19.9254 38.8552 20.5847 39.3883 21.0571C39.9215 21.5294 40.6295 21.9821 41.5125 22.4151C41.5958 22.4545 42.079 22.7005 42.962 23.1532C43.8616 23.6059 44.653 24.4719 45.3361 25.7512C46.0358 27.0305 46.3857 28.5559 46.3857 30.3272C46.3857 32.2167 45.7859 33.6338 44.5864 34.5785C43.3868 35.5232 41.7291 35.9956 39.6133 35.9956C37.2142 35.9956 35.6897 35.4543 35.04 34.3718C34.3902 33.2697 34.0487 32.6989 34.0154 32.6595C33.9487 32.5611 33.9154 32.4627 33.9154 32.3643C33.9154 32.3052 33.982 32.1773 34.1153 31.9805C34.3319 31.6262 34.6485 31.2031 35.065 30.711C35.1316 30.6323 35.1983 30.5929 35.2649 30.5929C35.3482 30.5929 35.4398 30.6717 35.5398 30.8291C35.6398 30.9669 35.7231 31.0751 35.7897 31.1539C36.7727 32.3151 37.8889 32.8957 39.1384 32.8957C39.7715 32.8957 40.3213 32.7579 40.7878 32.4824C41.2543 32.1872 41.4875 31.6459 41.4875 30.8586C41.4875 29.5006 40.5796 28.054 38.7636 26.5188C38.4637 26.2826 38.1805 26.0858 37.9139 25.9283C37.2142 25.4756 36.6144 25.0328 36.1146 24.5998C35.6148 24.1668 35.1733 23.596 34.7901 22.8875C34.4069 22.1789 34.2153 21.3523 34.2153 20.4076C34.2153 19.2267 34.5235 18.1638 35.1399 17.2191C35.773 16.2744 36.5228 15.5363 37.3891 15.0049C38.2721 14.4735 39.0385 14.2078 39.6882 14.2078Z" fill="#3C3C43"/>
<path d="M26.3743 14.1192C27.7405 14.1192 28.7734 14.4144 29.4732 15.0049C30.1729 15.5757 30.6561 16.1071 30.9226 16.5991C31.2059 17.0715 31.3808 17.3667 31.4474 17.4848C31.614 17.7407 31.6973 17.9375 31.6973 18.0753C31.6973 18.1933 31.664 18.2918 31.5974 18.3705C31.5307 18.4492 31.4474 18.5181 31.3475 18.5771C31.2475 18.6362 31.1809 18.6854 31.1475 18.7248C30.9476 18.8822 30.6811 19.1282 30.3478 19.4628C30.1979 19.6006 29.973 19.8073 29.6731 20.0828C29.3899 20.3387 29.1983 20.4961 29.0983 20.5552C29.0317 20.6142 28.965 20.6437 28.8984 20.6437C28.7818 20.6437 28.6735 20.565 28.5735 20.4076C28.4736 20.2501 28.4069 20.1419 28.3736 20.0828C28.3403 20.0238 28.2486 19.8958 28.0987 19.699C27.9654 19.5022 27.7905 19.3349 27.5739 19.1971C27.3573 19.0593 27.1157 18.9905 26.8492 18.9905C26.3494 18.9905 25.9578 19.3743 25.6746 20.1419C25.3914 20.9094 25.2498 22.2773 25.2498 24.2455C25.2498 25.5445 25.3414 26.6073 25.5247 27.434C25.7079 28.2606 25.9245 28.8609 26.1744 29.2349C26.441 29.5891 26.6909 29.7663 26.9241 29.7663C27.2573 29.7663 27.5073 29.6777 27.6739 29.5006C27.8571 29.3234 28.0154 28.9888 28.1487 28.4968C28.282 28.0244 28.4985 27.7883 28.7984 27.7883C28.8984 27.7883 29.0067 27.8079 29.1233 27.8473C29.2566 27.8867 29.3566 27.9162 29.4232 27.9359C29.5898 28.0146 29.998 28.1425 30.6477 28.3197C31.2975 28.4771 31.8556 28.6051 32.3221 28.7035C32.5553 28.7625 32.672 28.9987 32.672 29.412C32.672 29.6088 32.6636 29.7564 32.647 29.8548C32.6303 30.1107 32.5637 30.4551 32.4471 30.8881C32.0972 32.1478 31.4974 33.2893 30.6477 34.3128C29.8147 35.3166 28.5652 35.8185 26.8992 35.8185C25.8829 35.8185 24.8583 35.4543 23.8253 34.7261C22.7924 33.9979 21.9177 32.7874 21.2013 31.0948C20.4849 29.3825 20.1267 27.1388 20.1267 24.3636C20.1267 20.4272 20.7681 17.7407 22.051 16.3039C23.3338 14.8474 24.775 14.1192 26.3743 14.1192Z" fill="#D04848"/>
<path d="M11.7934 14.2078C13.3761 14.2078 14.6756 14.5817 15.6919 15.3296C16.7249 16.0579 17.5246 16.7566 18.091 17.4258C18.1576 17.5045 18.191 17.5931 18.191 17.6915C18.191 17.7505 18.166 17.8292 18.116 17.9276C18.0827 18.0064 18.0577 18.0654 18.041 18.1048C17.9577 18.2426 17.8161 18.4886 17.6162 18.8429C17.4329 19.1774 17.283 19.4235 17.1664 19.5809C17.1164 19.6597 17.0581 19.7482 16.9914 19.8466C16.9414 19.9254 16.8915 19.9844 16.8415 20.0238C16.8082 20.0631 16.7498 20.0828 16.6665 20.0828C16.6332 20.0828 16.5499 20.0238 16.4166 19.9057C16.3 19.7679 16.1834 19.6498 16.0668 19.5514C15.4004 18.8625 14.7506 18.2721 14.1175 17.78C13.4844 17.288 12.8763 17.042 12.2932 17.042C11.8267 17.042 11.4435 17.1699 11.1436 17.4258C10.8437 17.6619 10.6938 18.213 10.6938 19.079C10.6938 19.9254 10.9604 20.5847 11.4935 21.0571C12.0266 21.5294 12.7347 21.9821 13.6177 22.4151C13.701 22.4545 14.1841 22.7005 15.0672 23.1532C15.9668 23.6059 16.7582 24.4719 17.4413 25.7512C18.141 27.0305 18.4909 28.5559 18.4909 30.3272C18.4909 32.2167 17.8911 33.6338 16.6915 34.5785C15.492 35.5232 13.8343 35.9956 11.7184 35.9956C9.31932 35.9956 7.7949 35.4543 7.14514 34.3718C6.49539 33.2697 6.15385 32.6989 6.12053 32.6595C6.05389 32.5611 6.02057 32.4627 6.02057 32.3643C6.02057 32.3052 6.08721 32.1773 6.22049 31.9805C6.43708 31.6262 6.75363 31.2031 7.17013 30.711C7.23678 30.6323 7.30342 30.5929 7.37006 30.5929C7.45336 30.5929 7.54499 30.6717 7.64495 30.8291C7.74492 30.9669 7.82822 31.0751 7.89486 31.1539C8.87782 32.3151 9.99407 32.8957 11.2436 32.8957C11.8767 32.8957 12.4265 32.7579 12.893 32.4824C13.3595 32.1872 13.5927 31.6459 13.5927 30.8586C13.5927 29.5006 12.6847 28.054 10.8687 26.5188C10.5688 26.2826 10.2856 26.0858 10.0191 25.9283C9.31932 25.4756 8.71955 25.0328 8.21974 24.5998C7.71993 24.1668 7.27843 23.596 6.89524 22.8875C6.51205 22.1789 6.32046 21.3523 6.32046 20.4076C6.32046 19.2267 6.62867 18.1638 7.24511 17.2191C7.8782 16.2744 8.62792 15.5363 9.49426 15.0049C10.3773 14.4735 11.1436 14.2078 11.7934 14.2078Z" fill="#3C3C43"/>
<path fill-rule="evenodd" clip-rule="evenodd" d="M24.095 0.332879C4.16829 3.26833 -6.64672 25.3069 4.44941 40.3755C9.90653 47.797 24.2935 53.3518 33.8352 51.7109C35.2573 51.4701 35.3069 50.6873 33.9013 50.7325C26.6417 51.7561 20.3743 49.197 20.3743 49.197C34.2486 50.8378 46.8495 42.739 50.7687 30.124C56.2258 12.4812 42.8642 -2.437 24.095 0.332879ZM32.7768 1.95867C34.1328 2.2748 35.588 3.16297 36.266 3.91564C37.4071 5.18014 37.4236 3.64468 36.4314 2.66619L35.8196 2.04899C35.8361 2.06404 53.9934 7.07691 48.8009 27.6703C46.7999 35.5885 41.1444 43.04 32.2146 46.382C14.6195 52.9604 -0.0485721 40.7669 3.07686 22.1607C5.16049 9.87688 21.135 -0.811201 32.7768 1.95867Z" fill="black"/>
</svg>
