<svg id="Relm" xmlns="http://www.w3.org/2000/svg" viewBox="0 0 761.03 748.57">
    <defs>
        <style>
            .cls-1 {
                fill: #f3b95f
            }

            .cls-2 {
                fill: #1c1c1a
            }

            @keyframes rotate-clockwise {
                from {
                    transform: rotate(0deg);
                }

                to {
                    transform: rotate(360deg);
                }
            }

            @keyframes rotate-counterclockwise {
                from {
                    transform: rotate(0deg);
                }

                to {
                    transform: rotate(-360deg);
                }
            }

            #Outer {
                animation: rotate-clockwise 6s linear infinite;
                transform-origin: 50% 50%;
            }

            #Inner {
                animation: rotate-counterclockwise 6s linear infinite;
                transform-origin: 50% 50%;
            }
        </style>
    </defs>
    <g style="animation:rotate-clockwise 6s linear infinite;transform-origin:50% 50%">
        <path class="cls-1"
            d="m639.69 104.36-1.33-1.06a5.71 5.71 0 0 0-.81 2.37zm78.92 507.92a32.59 32.59 0 0 0-3.61 5.42c1.22-1.8 2.41-3.61 3.61-5.42zm-3.52-24.44c-.89 1.49-1.82 3-2.75 4.44a5.77 5.77 0 0 0 2.75-4.44zM601.71 82.22c-4.38-1.41-8.29-.42-13 1 6 3.58 12 7.37 17.79 11.32 3.59-.73 8-3.85 11.71-6.45l-1.35-.92c-2.29.39-2.35-.61-2.45-1.68l-3-2a22.79 22.79 0 0 0-4.47 1c-7 3.46 3.14 3.88-7.65 5.08.4-4.75 6-5.5 10.72-7q-2.35-1.56-4.74-3.08c-1.25.5-2.28.93-2.88 1.16zm9.99 15.91c1.37 1 2.73 2 4.09 3 .65-1.87-.52-3.19-4.09-3zm15.78 3.92c-2.68.5-5.44.81-8.44 1.45q3.19 2.41 6.35 4.89c.47-1.77 1.18-3.39 2.09-6.34zM458 32.34l-4.17 3.35 3.9-3.78C456 29.8 450.44 35 445.18 35.2c-2.46 4.1 7.3 3.73 19.45 2.5l-5.36 3a310.72 310.72 0 0 1 38.24 6.18c11.49-5.64-6.87-3.38-.2-8.75l5.59-.22a7.89 7.89 0 0 0 2.44-2.21c-1.52-.39-3-.8-4.59-1.17a41.38 41.38 0 0 0-11.81 3.91c.28-1.81 5.44-3.36 9.63-4.41a327.56 327.56 0 0 0-36.34-6.41l-4.46 4.33a1.51 1.51 0 0 1 .23.39zM184.67 711.41c2 1.44 4.07 2.88 6.13 4.28l.44-.22c-1.05-2.34 14.94-10.93-.34-7.17 4.85-1.77 17.39-5.44 12.84-2.88a6.74 6.74 0 0 0 4.17-.65q-5.92-3.91-11.69-8.06a29.3 29.3 0 0 1-9.51 2.13c.2-1.34 1.32-3.72 3.85-6.3a354.78 354.78 0 0 1-30.84-26c-1.57 9-3.65 19.94-2.21 23.38q12.54 11 26.05 20.71c.92-.15 2.16-.33 3.84-.57a13.56 13.56 0 0 0-2.73 1.35zM39.68 466c1.83-.67 4-1.58 6.39-2.61q-2.79-12.19-4.88-24.69a14 14 0 0 0-3.29 1 10.87 10.87 0 0 1 3-2.71c-1.78-10.87-3.2-21.88-4.18-33l-8.26 4.88 7.26-5.87h.91q-.78-9.07-1.21-18.24C28.79 213.54 154.47 72.43 332.08 44.33c-.82-4.58-14.28-.76-8.28-8.63 5.22-1 2.44-.89 3.17.66 13.3-4.87 6.11 5 5.25 8q12-1.89 24.21-3.08c1.48-.47 2.32-.14 5.64-2.16a8.36 8.36 0 0 1-.79 1.71c2.05-.18 4.11-.32 6.17-.47 2.74-2.38 5.2-4.65 8.17-5.73-3.46-1.48-8.33 3.5-13.18 2.07L377 31.32l-2.05-4.73c-2.11 4.88-18.11 7.08-18.12 10.29l-2.17-.88c-.32.08-.6.17-.94.23l-2.09-1.52 3 1.29c4.48-1.11 6.22-3.39 9.17-5.75 6.63-1.82 8.8-3.31 8.79-4.48Q365 26.2 357.43 27l-.6.25c-1.07.26-1.07.17-.5-.14-60.11 6.65-116.78 28.51-165.88 61.09a10.12 10.12 0 0 0 2.05 1.9 18.84 18.84 0 0 1-6.24.91C85.78 159.53 18.05 273.2 19.51 392.43a462.56 462.56 0 0 0 8.73 68l.24-.39c3.52 1.43 4.9 4.59 11.2 5.96zm108.77 211.07 1.79.64.29-4.26a11 11 0 0 1-2.08 3.62zM134.15 644l2.94-.89Q134 639.61 131 636l.58 3.59-3.44 2.41 2.23-6.68c-3.46-4.12-6.83-8.35-10.13-12.64l-2.45 3.5c0-.86 1-2.17 2.36-3.62q-3.14-4.07-6.16-8.22l-2.65 1c-3.23 1.58-6.75 3.63-10.31 5.13-1.36 0 7.34-5.88 2.43-7.29-1.51 1.82-5.51 4-8.59 6a388.52 388.52 0 0 0 30.86 39.3c8.97-6.77 8.42-8.59 8.42-14.48zm3.51 20.69a1.9 1.9 0 0 1 .84.62v-.65z"
            transform="translate(-19.49 -25.72)" />
        <path class="cls-1"
            d="m106.63 617.06 4.71-1.72c.87-.43 1.71-.8 2.52-1.14a394 394 0 0 1-23.38-36.29c-2.91.38-5.61.54-6.89 0l-6.83 3.9a13.81 13.81 0 0 1-2.21 1.26l2.21-1.26c4.94-3.53-3.54-5.54 8.58-9.55l-5.59 6.6c4.18-2.2 7.14-2.83 9.62-2.88-1.34-2.38-2.65-4.78-3.94-7.18l-2.87.35c2.28 2.87-6.67 4.41-13.49 7q8.63 16.56 18.61 32.17a17.58 17.58 0 0 0 2.83-.92l.15-1 .33.79-.48.19-.62 3.87h-.27c1.11 1.69 2.21 3.39 3.35 5.07 3.24-.33 6.66-.63 11.2-4.82.35 4.03 9.75-.31 2.46 5.56zM55.65 498.45c-1.76.94 1.68 1-6.86.76-.76 1.67-4.17 6.56-4.92 5 1.66-2.79-1.22-2.43-4.77-1.36.82 2.65 1.65 5.28 2.52 7.91 3.73-3.35 8-3.94 16.07-6.16-.69-2.04-1.38-4.08-2.04-6.15zm-22.56-25.04c3 .9 8.46-1.06 14.52-3.52-.47-1.92-.92-3.85-1.37-5.78a90.78 90.78 0 0 1-16.06 5.35c.4 1.74.82 3.47 1.24 5.21l2-3.66zm9.06 38.98.5 1.52c1.78-1.34 2.93-2.35-.5-1.52zm-4.21-21.53c.28-2 7.54-8.13 12.57-9.76v-.13c-2.32.1-1.8-.6-.41-1.57-.34-1.24-.65-2.49-1-3.74-.91.93-3.38 2.57-5.56 4.19a11.26 11.26 0 0 1-2.79 4.49c-2.4-.33-.07-2.38 2.79-4.49 1.07-3.72-1.49-6.7-11.72-3.59q2.22 9.21 4.82 18.27l9.68-4zm568.14 222.92c-9.41 4.34-11.85-4.38-8-5.3l3.78-.94a9 9 0 0 1-1.75-.59 350.15 350.15 0 0 1-33.49 19.21c-2.14 1.42-3 1.75-3.28 1.6-1.78.87-3.58 1.74-5.38 2.59a1.48 1.48 0 0 0 .52.37h-1.32c-47.15 21.83-98.78 32.49-151 28.37A329.18 329.18 0 0 1 271 737.37c-1.84 3.46 3.36 4.25.93 7.14l-10 1.09a17.93 17.93 0 0 1-4.62 5.34 333.69 333.69 0 0 0 44.73 14c2-1.45 4.33-2.94 4.68-3.69a14.31 14.31 0 0 1-1.79-.41h-.32l-6.2 1.81 4.14-3.35a3.57 3.57 0 0 0 2.38 1.5c1.53-.21 2 0 1.79.41 4.2.71 9.64.5 7.32 1.65l-3.17-.66-3.13 4a355 355 0 0 0 98.48 7.28A338.36 338.36 0 0 0 524 759.33l.44-.16-.09.06a346.32 346.32 0 0 0 61.92-25.71c.39-.5.76-1 1.08-1.45.26.11.24.41.09.81 9-4.83 17.73-10.07 26.25-15.65a21.12 21.12 0 0 1 1.8-7.8c-4.89 1.76-8.7 2.7-9.41 4.35zm-180.24 54.9c1.69-.5 2.59-.62 1.2.49a1.57 1.57 0 0 1-1.2-.49c-3.41 1-10.09 3.55-8.46.81 6.74-5.44 7.07-2.15 8.46-.81zM684.9 148.72c-4.78.89-7.88 3.06-13.9 3l2.25 2.56a40.63 40.63 0 0 0 6.47-1.39c6.33-1.57 2.17 3.84-.84 8.07 53 64.42 84.6 147.9 85.65 234.17 3.59 66.73-13.83 130.75-45.53 186 1 .35 3.75.05 10-1.47l-7.23 5.84c5.72-.19 10.07-3.66 16.37-6.4.74-1.4 1.47-2.82 2.18-4.23-3.13.57-7.6 1.92-8.88.69l7.64-1.88 1.41-6.45c1.55-.51 3-1 4.32-1.58q4.72-10 8.86-20.4c-1.54.67-2.82.75-3.48-.77 2.59-.64 3.88-1.23 4.51-1.79.17-.44.35-.88.51-1.32-.09-.62-.44-1.22-.16-1.86-5.22-2.2.35-5.64 4.11-9.73a7.84 7.84 0 0 0-.71 2.92 379.52 379.52 0 0 0 21.71-145.63 385.74 385.74 0 0 0-100.93-245.29c-3.4 4 .45 6.41 5.67 6.94zm-47.31-36.66a21.82 21.82 0 0 1-6.25 1.15l2.48 2.09c2.38-.97 4.18-2.22 3.77-3.24zm1.7 3.94c-4.16 2.4-.6 3.11 3.56 1.15q.49-.23 1-.51-.5.28-1 .51c-1.27.84-1.47 1.86-4.44 2.07 10-.19 10.22 4.62 21.6 3q-4.35-4.12-8.84-8.1l-.78 1.41c-5.87 2.7 1.8-5.6-11.1.47zM140.85 674.37a10.78 10.78 0 0 0 1.05-.63 4.14 4.14 0 0 0-2.17-.47c.36.38.74.73 1.12 1.1zm500.51-560.04 7.07-2.58q-4.3-3.75-8.71-7.36c-10.87 6.32 2.28 5.4 1.64 9.94zM138.48 666.34a11.71 11.71 0 0 1-3 2.54c.92 1 1.85 1.91 2.78 2.85.06-1.79.17-3.58.22-5.39zm593.76-76.4c1-1.78 2-3.55 3-5.35-10 2.68-12 5.77-24.27 9.93-.11.18-.21.36-.33.53 1.82 1.24 2.7 1.43-2.52 4.6l-.3-.26c-1 1.51-2 3-3 4.52l7.83-3.63-1.4 6.47-7.07-1.91q-8.35 12.3-17.67 23.86l3.29-.4c-1.12-2.35 6.19-5 11.09-6.78-4 .13 2.62-4.39-2.77-2.64a10.06 10.06 0 0 1-2.12 1.22l1-.85c.4-.15.75-.27 1.07-.37 3.09-2.39 1.7-5.38 5.51-10.26l-1.4 3.23c13.69-5 11.81-3.08 21.24-7.13q4.51-7.25 8.73-14.7h-.08zM263.83 740.57a4.93 4.93 0 0 1-.45 1.36l-.82 2.46c0 .07-.09.16-.12.23 4.61-4.28 3.28-7.2 1.6-10q-5-2.05-9.83-4.27l-1.62-.12a3.38 3.38 0 0 1 0-.62q-4.19-1.92-8.31-4a8.59 8.59 0 0 0-2.62 3.67l1.44-4.28a335 335 0 0 1-31.79-18l-3.31 7.86c-4.17.16-9.75.38-11.84-1.14l-4.61 2.45c1.83 1.23 3.65 2.48 5.51 3.68a25.86 25.86 0 0 0 2.58-1.48v3.11l.1.06c4.87-1.79 7.94-4.25 11.07-3.59-6.3 3.39-5.85 5.66-4.38 7.76 7 4.21 14.07 8.2 21.35 11.91a25.48 25.48 0 0 0 2.76-3.22 19.75 19.75 0 0 0-1.61 3.8c.76.39 1.53.75 2.3 1.13 2.83-1.48 6.58-5 2-.12-.22.29-.43.55-.64.81 2.41 1.18 4.84 2.34 7.29 3.46l3.27-5.55-.57 4.27-1.67 1.8q7.54 3.45 15.31 6.53c.65-1.7 5.61-5.37 7.16-8.57a4.93 4.93 0 0 0 .45-1.39zM515.46 50.2l7.24-5.86.73 4.77c-.29-.62-3.62-.1-8.3 2.25a312.39 312.39 0 0 1 36 12.78c2.88-2.57 4.54-4.64 7.1-6.72-2.44.89-4.83 1.78-5.23 1a52.61 52.61 0 0 1 7.85-3.16 340.71 340.71 0 0 0-45.7-16.93l-7 4.94c13.18-5.27-1.07 7.24 7.31 6.93zm-64.78-18.38 8.56-4.59c-1.22-.13-2.45-.26-3.67-.37a15.74 15.74 0 0 1-4.89 4.96zm101.85 32.92a.59.59 0 0 0 .14.06 1.47 1.47 0 0 1-.14-.06zm-49.3-19.66a23.14 23.14 0 0 1-4 2.15c1.87.43 3.75.88 5.61 1.34 1.6-1.84 1.85-3.63-1.61-3.49zM145.62 654a6.58 6.58 0 0 1 1.49.23 1.27 1.27 0 0 1 .1-.12l-.44-.47c-.38.12-.77.22-1.15.36zm8.98 9.76 1.6-.62-.77-.74c-.27.46-.55.92-.83 1.36zM82.22 562.68c-.52-1-1-2-1.56-3l-8.89 1.06c9.87-9.72-3.85-12.42.37-19q-7.17-16.11-13-33c-4.57 1.16-9.43 2.26-13.14 3.39L43.89 517h-.18q5.41 15.71 11.95 30.84a2 2 0 0 1 1.52 2.2l-.49.2Q62 562.4 68 574.07l9.32-10.32a18.1 18.1 0 0 1 4.9-1.07z"
            transform="translate(-19.49 -25.72)" />
        <path class="cls-1"
            d="M604.82 703.86c8.4-2 17.84.89 11.34 7.14l8.72-2.73a3.32 3.32 0 0 0-.33 1.54q13.88-9.82 26.77-21c3.09-5.76 12.07-13.88 20.45-21.48-10.57-3.88-3.47-11-5.26-15.72a368.33 368.33 0 0 1-61.69 52.25zm-27.41-456.61a27.71 27.71 0 0 1 5-2.38q-3.85-4.37-7.94-8.55a5.59 5.59 0 0 0-.42.44 1.33 1.33 0 0 1 0-.86q-3.72-3.81-7.63-7.45a34.62 34.62 0 0 0-5.83 1.09 212.67 212.67 0 0 1 16.82 17.71zM174.18 394.42a259 259 0 0 1 32.65-107.72l-2.25-.32 2.78-.6c1-1.82 2.07-3.65 3.15-5.44a33 33 0 0 1-4.22.37c.21.47-.1 1.06-.68 1.71a2 2 0 0 1 .36.7l-2.63 1.32c-2.73 2.17-5.91 4.43-2.93 5.28-7.31.27-2.93-2.31 2.93-5.28a19.12 19.12 0 0 0 2.27-2c-1.62-2.34-7.79.65-12.07 2.37a215.46 215.46 0 0 0-11.8 24.51c5.45-2.77 3.25-5.25 5.45-7.88l3.49 7.86-9.45 1.39a197.15 197.15 0 0 0-8.89 28.57c.89-.87 1.2-1.61 1.69-.55 8.69-2.73 3.84-4.16 8.31-6.69l-2.77 6.5c-1.69.62-5.58 2.47-7.67 2.71a182.48 182.48 0 0 0-3.47 23.31l2.85-2.27a15.38 15.38 0 0 1 2.44-2l-2.44 2c-2.73 3 10.94-2.24 4.91 3.54l-5.94-.58c-.73.45-1.37.87-1.95 1.27a176 176 0 0 0-.49 17.66c.1 3.05.27 6.09.48 9.12h.25l-.25.06a273.37 273.37 0 0 0 20.89 87.82l.8-.33a194.27 194.27 0 0 1-15.8-86.41zm.38-42.31-3.24-.55 8.3-6.69-3.34 12.06zM190 481l-.81.3c.45 1.07.91 2.15 1.38 3.22l.69-.61c-.39-1.01-.81-1.99-1.26-2.91zm44.05 65.45-.44.88c.27-.17.53-.35.78-.53zm178.68-375.67a13.64 13.64 0 0 1 2.37-2.52c-3 1.5-5.58 1.8-8.7 2.47 2.11.01 4.24-.01 6.33.05zM315.8 601.63l.12-.19-.38-.16a3.18 3.18 0 0 0 .26.35zm262.52-353.32c1.37 1.65 2.7 3.32 4 5 .17-.21.33-.42.49-.64a3.69 3.69 0 0 1 2-2.7l1-1.23c-1-1.19-2.07-2.33-3.1-3.49a27.79 27.79 0 0 0-4.39 3.06zm-351.23-6.73c3.18-2 2.82-3.51 2-4.94q-7.58 8-14.41 16.59c1.95-.93 3.71-1.9 5.1-2.6l3.85 5.47 5.81-2.88c1.05-1.31 2.16-2.58 3.24-3.87l-6.29.23c2.07-1.64 5.59-3.4 3.87-4.14l5.4.38c.74-.85 1.5-1.69 2.26-2.53l.28-2.15a10.88 10.88 0 0 1 1.34.39q7.26-7.92 15.17-15.12l2.25-3.53c.23.51.8.31 1.8-.12 3.79-3.28 7.7-6.4 11.7-9.41.41-.42.89-.89 1.46-1.42l-12.86 2.86-2.14 4.9c-6.52 4.21-2-1.55-10 2.74l13.56-10.89-7.48 2.94q-9.44 7.7-18.12 16.27c.49 3.51-4.6 9.01-7.79 10.83zM304.42 607c1.88.9 3.77 1.79 5.68 2.64 2.65-6.31-1.92-3.85-5.68-2.64zm.95-7.26c.63-.81 1.15-1.51 1.56-2.13a239.92 239.92 0 0 1-35.33-19.81l-2.19 2-2.63 3.8a216.14 216.14 0 0 0 33.55 21.32 15 15 0 0 1 .95-3.26zm313.22-131.93 5.12-.63c.35-1.14.68-2.29 1-3.44-2.29.19-4.3 1.02-6.12 4.07zM519 588.7c-34.17 20.79-73.74 32-115.08 29.19A220.5 220.5 0 0 1 320.09 603a6.21 6.21 0 0 1-2.48 2.24c.37-.8-.81-1.35-1.5-2.08-1.82 3.18-3.37 4.13-5.54 6.63a199.77 199.77 0 0 0 93.33 16.94c7.37.21 14.59.05 21.68-.36 0-.1.07-.21.09-.3a3.77 3.77 0 0 1-.88-2.41c.92.39 1.1 1.27.88 2.41a2.64 2.64 0 0 0 .36.28c36.73-2.19 69.69-12.55 98-29.28-5.61-3.65-1.53-4.95-5.03-8.37zm-198 19.94-1.24-2.74c2.87-2 1.72.72 1.24 2.74l.75 1.66c-1.12.43-1.06-.49-.75-1.66zm-62.33-40.15a236.21 236.21 0 0 1-22.76-20.21l-2.09 1.72a9.62 9.62 0 0 1-1.43-.18l-.39.79A239.33 239.33 0 0 0 259.8 578c7.74-9-8.2 3.28-1.13-9.51zm-65.51-80.7c-.32.07-.65.15-1 .24a265.59 265.59 0 0 0 27.2 46.67c.84-.6 1.71-1.21 2.59-1.8a216.15 216.15 0 0 1-28.79-45.11zm40.13 59.74c.23-.34.47-.73.72-1.12-.36-.37-.7-.77-1-1.14l-2.33.85c.77-.34 1.48-.69 2.15-1-3-3.18-6-6.46-8.8-9.8a18 18 0 0 1-3.62.71c.9 1.23 1.8 2.44 2.73 3.65a26.2 26.2 0 0 0 2.7-1.36l-2.54 1.55q4 5.22 8.28 10.19c.1-.13.19-.23.3-.38-1.24-.48-.01-1.24 1.41-2.15zm389.65-211.3a229.13 229.13 0 0 1 7 49.92 218.05 218.05 0 0 1-5.83 57.39c1.5 1.59 3.24 3.08 2.8 4.79.76-.14 1.42-.29 2-.45a289.29 289.29 0 0 0 7.2-51.71 191.94 191.94 0 0 0-5.59-62.17 2.83 2.83 0 0 1-.28.6c-1.33.09-4.73 1.1-7.3 1.63z"
            transform="translate(-19.49 -25.72)" />
        <path class="cls-1"
            d="M582.83 252.67a2.37 2.37 0 0 1-.31.87A217.92 217.92 0 0 1 596 272.86c2.15-4.73 1.39-7.92-2.06-10.44l1.83-.95c-3-4.16-6.19-8.26-9.53-12.22a10.59 10.59 0 0 0-1.4.72c-.66.9-1.33 1.8-2.01 2.7zm14.46 22.16a224.72 224.72 0 0 1 25.22 59.64c2.06-.11 6.61-1.93 7.79-1.28a209.21 209.21 0 0 0-26.24-59.67c-1.62-.16-3.6.15-6.77 1.31zm17.94 197.27c-17.56 46.15-49.63 86.13-89.89 112.57l4.36-1.59c1 2.14 5 3.46 7.93 5.28 38.29-26.85 66.86-66.07 83.17-112.45-5.37.2-2.86-3.25-5.57-3.81zM496.44 188.13l.18.08a32.15 32.15 0 0 1 6.21-2.83c-.84-.4-1.7-.75-2.55-1.14a40.66 40.66 0 0 0-3.84 3.89zm-31.07-10.23q9.86 2.46 19.22 5.7a10.4 10.4 0 0 0 3.28-2l1.68-1.72-1.68 1.72-2.3 2.34 1 .36c8.58-2.36 4 2.6 13.46 0a1.38 1.38 0 0 0 0-.2 248.73 248.73 0 0 0-33.81-12.53c.94 1.65-.16 4.07-.85 6.33zM433.91 166l2.41-.91c-2.8 2.63-5.27 4.74-7.43 6.7a241.89 241.89 0 0 1 27.59 4.09c1.76-.54 3.24-.89 4.2-.49l4.93-3.93c-1.37-.39-2.73-.79-4.11-1.16-1 .92-3.15 2.1-7.09 3.72-1.68-1.22-2.65-3.49-2.8-6.14-6.15-1.37-12.38-2.55-18.67-3.45-.21.57.06 1.14.97 1.57zm80.56 30.56a21.73 21.73 0 0 0 6.88-1.45c-.78-.46-1.58-.89-2.36-1.33a39.66 39.66 0 0 1-4.75 2.65zM374.46 169l-1.75-4a20.39 20.39 0 0 0-5.57 3.43 7.26 7.26 0 0 0 2.31-5.3c-26.31 3.1-52.34 11.71-76.51 24.65.78 1.08 2.21 1.92 4.68 2.4 15.3-7 .31.8 12.18-1.25l-10.05 2.75a14.36 14.36 0 0 1-1.64 3.9 205.15 205.15 0 0 1 100.36-24.83c2.28-.06 4.51 0 6.76 0 2.73-4 10.69-5.85 18.77-7.45a236.47 236.47 0 0 0-25.76-1.34c-5.1-.21-10.21-.12-15.32.1-1.38 2.11-3.81 4.39-8.46 6.94zm154.02 35.7a212.15 212.15 0 0 1 20.19 14.4 4.61 4.61 0 0 1 2.47-2.3c-.38.92 1.22 1.26 3.71 1.48a249.33 249.33 0 0 0-21.45-15.8l-3.83.73a4.44 4.44 0 0 0-1.09 1.49zM426.16 668.92c-2.38 3.92-4.44 7.77.1 9.1l-3.63 1.42c46.2-3.37 88.63-17.79 129-40.42-1.77-2 1.67-4.74-1.5-8.12-.51-1.06-5.06-2.31-6.64-.43-38.21 21.58-74.07 35.02-117.33 38.45zm-114.07-8.73 2.58-5.2c-3.37 1.78-6 .16-6.93-3.39L306 651a8.48 8.48 0 0 1-.66 1l-5.84-.66c-1.5 2.55-3.35 4.8-4 6.5 4.89 1.75 9.64 3.39 14.3 4.94a9 9 0 0 1 2.29-2.59zM295.81 652c-.43 1.27-1.54 2.06-1.94 3.31 2.55-5.49.58-6.2-1.82-6.23a1.18 1.18 0 0 0 .05.31c-6.09 1.24-3.62 2.53.89 2.06-3.94 1.66-3.81 4-4.08 4 2.18.81 4.32 1.58 6.46 2.35.63-2.28 2.44-5.69.44-5.8zm114.84 17.73h-4.34l-1.64 1.06 1.64-1.06c-2.39 0-4.77.05-7.2 0a180.2 180.2 0 0 1-28.5-1.63l-1.24.31.6-.39q-8.1-1.12-16.29-2.89c-2.57 2.88-9.57 6.69-11.26 5.53.23-1.62-2.21-.63-5.08.25 21.87 5.72 41.58 8.78 60.61 9.23 4.51.06 9 0 13.4-.17 1.25-3.86-.74-6.78-.7-10.24zm-67.15-6.24c3.16-.11 3.92 1.7 7.15 1-7.57-1.71-15.24-3.82-23-6.24l-1.41 1c-3.5 6.36-6.17 5.37-8.82 5.92q9.33 2.92 18.14 5.28c6.1-3.45 8.54-5.56 7.94-6.96z"
            transform="translate(-19.49 -25.72)" />
        <path class="cls-1"
            d="m320.78 656.11-2.74-.9c0 .1 0 .2-.07.31-1.83 1.78-4.11 3.22-5.88 4.67l-1.43 2.86c1.91.63 3.79 1.23 5.66 1.83 1.57-2.16 1.49-3.73 2.21-5.89a27.1 27.1 0 0 1 2.25-2.88zm-47.95 33.31.18.07c1.04-.28 1.55-.3-.18-.07zm298.06-16.72a10.92 10.92 0 0 0 2.73-3.33c-2.48-.28-4.85-.1-5.24.71-1.41.92-2.85 1.78-4.27 2.67.12 1.33-.35 3.11 6.78-.05zm7.04 3.81c2.58-.4 3.69-1.09 3.75-2a10 10 0 0 0-3.83 1.12z"
            transform="translate(-19.49 -25.72)" />
        <path class="cls-1"
            d="m553.14 680.55 11.86-5.24-2.28-1.67c-48.25 29.86-105.07 44.83-158 43.39-42.37-.08-86.87-8.82-131.73-27.54-1.56.42-4.31 1.41-2.54 3 .35-.06-7.13 2.16-2.63 1.8 1.79 2.18-3.84 4.88 5.85 4.73q16.89 7.65 33.41 13.3l1-1.17 2.78-.09-2.23 1.78c30 10.12 59.24 15.24 88.18 14.87a328.47 328.47 0 0 0 95.74-13.07l.5-.72-.28.65c2.49-.73 5-1.5 7.41-2.29l.54-.25c-.09.07-.21.11-.3.18a261.27 261.27 0 0 0 54.93-24.68c3.16-3.6 4.47-6.62-2.21-6.98zm-190.07 39.78 7.65-5.07-3.52 4.92zm128.59-9.54 3.15-2.52 7.27-2.67zM388.58 111.67c8.05-4.31.41 4 4.89 4.62a6.83 6.83 0 0 0 2.88-.86 3.14 3.14 0 0 0 .61-.89c.11.31-.16.62-.61.89a5.87 5.87 0 0 1-1 .88c2.79-.16 5.56-.29 8.23-.37 48.24.75 95.39 14.66 138.52 40.68 8 1.95 8.62 2.27 8.85-.91 5-1.94-3.29-4.31 3.89-5.21-46.5-28.5-93.44-43.5-145.07-42.82q-9.24 0-18.28.37c-1.6 1.38-2.77 2.65-2.91 3.62zM495 131.73c-2.79.09-8.37.32-2.43-2.33 2.44-.88 5.56-.19 7.63-1.87zm-11.88-4.35h-1.36l7.28-5.88 1.45-.06zM298.53 135c12.52-3.77 9.1-.28 8.16 2.41 9.7-5.29 21.45-9.52 34.05-12.78 3.09-3.87-.4-6.48 3.73-10.54-10.42 2-13.59 7.72-17.07 9.44l9.23-8.38c-4.88 1.15-9.67 2.45-14.31 3.9l-7.78 4.15c.59-.47-.11-.89-.25-1.47-3.66 1.33-7.2 2.78-10.67 4.32.66 1.95-.08 4.39-5.09 8.95zm-3.16 1.56 1.37.36c-2.91.92-2.65 1.75-.8 2.19a11.46 11.46 0 0 1 2.59-4.12zM553.64 109l4.3-4.42-4.88 1.78 4.94-1.76 4.88-1.78-9 6.28c4.91 3 9.7 6.08 14.29 9.34 3.29 1 7.91 1.4 6.19-1 6.39-1.92 5.25-5.54 9.07-7.25-7.64-4.4-15.19-8.5-22.71-12.33-3.49 3.14-10 5-15.26 6.34 2.7 1.58 5.47 3.18 8.18 4.8zm-31.19-27.06c.57-.18 1.08-.31 1.62-.46a328.53 328.53 0 0 0-81.18-20.12l-11.58 6.35 1.74-2.47 9.59-3.91c-4.3-.51-8.67-1-13.1-1.32-2.45 2.69-6.72 5.54-10.41 8.24a297.35 297.35 0 0 1 99.1 22.82c3.43-3.49 5.31-6.59 4.22-9.13zm16.34 17.78 8-4.29-7.13 5.71c.64.33 1.3.64 1.93 1a99.72 99.72 0 0 1 15.71-5.88q-5.58-2.77-11.14-5.36a26.67 26.67 0 0 0-3.58 1.51c2.13 4.7-3.08 2.47-3.79 7.31zM351.68 69.85c-2.08 1.68-.71 4.81-2.79 3.29l-.68-4.77 5.92.59c4.55-3 6.82-5.37 7.65-7.29-28.21 4.17-60 12.48-90.67 24.25 2.06 2.42-4.81 3.92-6 5.72 6.59 1.32 11.24 1.71 5.72 2.47-3.28 2.53-.82 3.17 9.83 2.56 21.1-10.9 48.61-18.77 76.57-23.51.16-2.16-2.23-3.44-5.55-3.31z"
            transform="translate(-19.49 -25.72)" />
    </g>
    <g style="animation:rotate-counterclockwise 6s linear infinite;transform-origin:50% 50%">
        <path class="cls-2"
            d="m393.2 236-1.71-2.57c-2.3-2.4-5.38-3.49-7.51-6.64l-2.94.45 2.94 4.18-4.65-3.24.34-.7a172.53 172.53 0 0 0-21.52 5.18c-.19.65-.54 1.08-1.39.85v-.4c-1.43.46-2.85.93-4.26 1.43.43 2.74-1.73 1.73-3.45 1.23a179 179 0 0 0-43.82 23.78 7.82 7.82 0 0 0 1.05 1.39A158 158 0 0 1 393.2 236zm-88.65 26c-.24-.59-.46-1.08-.68-1.5q-3.6 2.7-7.07 5.58l.08.28-.23-.15A185.59 185.59 0 0 0 277.19 285a156.09 156.09 0 0 1 27.36-23zm-71.86 131.09-.95-.77c.86-1.76 1.51-2.16 2.13-2.36a165.91 165.91 0 0 1 16-65.18 188 188 0 0 0-15.13 40.39c.23.27.46.55.7.88l-.8-.48a187.39 187.39 0 0 0-4.77 29.12c1.73 1.43 2.44.22 2.82-1.6zm319.77-69.85.95 1.44a7.23 7.23 0 0 1 .65 1l-.65-1c-1.59-2-3-.86-4.75-.89q1.92 3.87 3.66 7.85c.59.17 1.11 0 1.23-.87l-1.27-1.91c-.76-.43-1.44-1-1.94-2.93l1.94 2.93a6 6 0 0 1 2 1.41c1.31 2 .83 5.09-.47 5q2.14 5.19 3.95 10.55a4.84 4.84 0 0 0-.88-3.41l3.64 3h.1l-2.11-3.41a15.59 15.59 0 0 1 3.12 4.2 3.56 3.56 0 0 0-1-.83v.07l-.13-.11c-.89-.37-1.36.57-.74 2.71a5.91 5.91 0 0 1-1.79-1.58c.29.87.57 1.74.85 2.62a3.09 3.09 0 0 1 .14.43 180.13 180.13 0 0 1 6.68 29.88l3.2 2.62-1.22.12c3.79 3.09 3 6.3 1.85 7l-2.25-4.05a3.25 3.25 0 0 0-.83.78c.09.86.17 1.72.25 2.58a5.46 5.46 0 0 0 1.21 1c-.28.18-.68.09-1.15-.18 0 .62.09 1.24.14 1.86l4.41 1.65.32 1.2a176 176 0 0 0-5.26-37.97c-1 0 .78 3 0 2.37l-3.31-5.48a32.7 32.7 0 0 1 3 1.88 168.74 168.74 0 0 0-11.9-31.91 1.65 1.65 0 0 1-1.64.38zm-14.97-18.74c.94.78 1.91 1.51 2.33.66-1.24-3.33.17-3.9.8-5-2-2.76-4-5.47-6.06-8.1a11 11 0 0 1-4.16 2.59c2.48 3.19 4.84 6.48 7.09 9.85zm12.31 46.44c.88 2.45 2 2.89 3.11 3.94-.45-1.46-.92-2.91-1.4-4.35a1.33 1.33 0 0 0-1.71.41zM270.89 479.29c-.87-2.9-4.1 1.79-4-2.85 2.57.48 4.07 1.94 6.5.82q-2.7-4.93-5-10.12a12.47 12.47 0 0 0-4 8l.67 2.41h-.05c1.16 2.08 2.36 4.13 3.62 6.16l-.23-2.11z"
            transform="translate(-19.49 -25.72)" />
        <path class="cls-2"
            d="M391.49 233.4a9.68 9.68 0 0 1 1.78 2.57h.66l-.62.07c.05.11.11.22.16.34l-.22-.33a167.11 167.11 0 0 0-55.34 15.69c1.62 1.6 2.88 5.63 4.87 5.44 0-.14-.1-.25-.16-.4-.18-1.28.77-.5 1.25-.09a2.1 2.1 0 0 1-1.09.49c2 5.09 2.93 2.37 4.66 4l1.72-.64c0-1.38.13-2.3 1.39-.5a122.33 122.33 0 0 1 47.92-6.72c3.35-.07 6.66 0 9.95.13.46-1.45.6-3.64 2.44-.64-.08.25-.15.5-.22.75a143.9 143.9 0 0 1 38.24 7.53c.31-.65.93-.78 2 .09-1.67-5.77-2.9-5.69-5.94-6.51-.28-1.89-1.31-3.28.13-4.86-1 .64-3.4-2.81-5.79-6.41-1.38-.44-2.76-.85-4.15-1.26-2 2.44-7.09-.83-7.64 4.35 4.24 6.23-.39.22 1.2 5.41l-1.86-4.29c-3.35 0-10.17-3.89-13.85-9.12a2 2 0 0 0 0-1.35c-2.59-.43-5.19-.8-7.82-1.11 3.24-.21 6.45-.3 9.62-.3l-1.56-4.23-2.58-.46c-2.44-2.53.69-1.08-1.86-4.28l6.15 5-3.67-6.17c-2.5-.25-5-.47-7.53-.63-1.64.05-3.28.13-4.92.22-.26 1.17-.75 1.77.25 3.54l5.11 3.64c-.18-1.26-1.51-1.79-2.16-3.43l3.08 1.06a1.85 1.85 0 0 0 0-.23l.26.31 3.72 1.28c-.39.24.1.65.66 1.66-.11 2-2.81-1.09-4.38-2.94l-.22-.08c1.06 5.09-1.72 2.86-4.08 3.67-1.76-1.45-3.4-7.11-5.69-8.23l-2.76.25c-.5 2.2-1.67 4.05-2.27 5.84zm-45.58 16.5a2 2 0 0 0-.48.06c.23 1.55-2.55-.63-1 2.21 1 1.31 2.05 3.61 2.67 2.67l-.39-1.33.56 1a1.43 1.43 0 0 1-.17.35l.45 1.53c-2.85-2.32-3.22-2.07-5.76-5.24l.74-.51c.86.44 1.81-.41 2.87-.66a2.81 2.81 0 0 0-.1-.39 2.5 2.5 0 0 1 .58.33c1 0 2.16.76 3.39 4-2.17.74-1.44-2.63-3.36-4.02zm4.17 3.56 1.52-1-2.46-2.56c.48.4 3.7 2.47 4.14 5.59zm54.29-10.93-1.7-3.05c1-2 6 3.79 3.36-2.77l3.2 4.84c-.84-.14-4.47.75-1.45 4.32 2.46 2.58 3.72-.27 5.21 4.26-4.08-5-4.57.14-6.38-.79-1.6-2.4 1.88 1.54.58-1.75-4.23-6.21-5.42 0-4 3.91-1.14-2-1-6.9-3.39-6.08 2.84-.42.59-4.49 4.57-2.89zM263 453.36a166.57 166.57 0 0 1-8.39-51.88 145.65 145.65 0 0 1 .47-16 22 22 0 0 0-2.79-1.33c.28 1.9 1.3 6.05 2.16 6.21-.86-.16-3.12-4.22-4.64-6 .6-1.73 2.2-2.08.43-5.74l-.4.23c-.35-2.46 3.63 2.88 5.49 3.94v-.36a5 5 0 0 0-.22-.82c-.37-.57-.69-1.07-.93-1.39a3 3 0 0 1 .93 1.39c.09.12.17.25.26.39.18-1.64.39-3.27.62-4.89-1.06-1.69-2.31-3.38-1.3-2 .39-.23.95.17 1.51.63.17-1.14.36-2.26.56-3.39a4.52 4.52 0 0 0-1.85-1.47l1.62-.35-5.19-7c.76-.48 3.88 3.74 2.48-.18l-.95-.78c1.06-1.36.69-3.86 2.49-2.94l2.85 5.57a147 147 0 0 1 10.17-29.51l-1-2.13a3.88 3.88 0 0 0 1.39 1.23c.13-.27.26-.53.38-.79a1.24 1.24 0 0 0 0-.16 7.07 7.07 0 0 0-2-2.18l2.75.85a148.08 148.08 0 0 1 54.9-60.27 15.34 15.34 0 0 0-8.24-2.49c-1-1.41-3.24.67-3.74 3-.89-.73-2-3-2.81-3.76l-.94.73a6.12 6.12 0 0 0 3 3.51c.27 3.93-2.37-1-4.09-2.63a164.17 164.17 0 0 0-54.41 81 5.59 5.59 0 0 1 .8 1.09 5.27 5.27 0 0 0-.86-.89c-.25.82-.48 1.63-.71 2.45v.14a174.36 174.36 0 0 0-5.63 28.95l4 4.92-4.17-3.8q-.85 8.46-.93 17.12a145.53 145.53 0 0 0 7.34 49.8c3.39-3.22 5.77 1.67 9.59 1.98zm6.85-135-2 .57-.08-.62zm-7.91 17.31a6.56 6.56 0 0 1 2.07 2.81l-2.18-.69zm197.33-79.78c4.73 6.64 5.71 1.91 8.93 4-1.5-4.53-4.55-5.38-5.58-6.78l5.12 3.64a14.66 14.66 0 0 0 .12-1.58q-5-2.57-10.15-4.83c1.5 2.79.38 2.97 1.56 5.55zm-3.81-14.74.35.77a143 143 0 0 1 14.51 5.36 12.79 12.79 0 0 1-.8-1.27c-.88-6 2.92.93 5.43 2.63a9.65 9.65 0 0 0 2.09-2.56c-.08 3-1 3.32-2.09 2.56a4.17 4.17 0 0 1-.69.43 145.43 145.43 0 0 1 15.36 8.4l1.9-.65v1.85q2.65 1.71 5.23 3.54c1.2-.46 1.9-2 2.69-3.42a181.51 181.51 0 0 0-36.73-20.28l.58 1.86c-2.77 1.06-2.71 4.43-7.83.78zm-8.9-3.95a18.64 18.64 0 0 1-1.54-3.11c-2.47-3.48-4.21 1.27-7.36-3.61a28.49 28.49 0 0 0 1.45 2.63 9.13 9.13 0 0 1 .71.8 4 4 0 0 1-.71-.8c-1.75-1.74-1.46.8-2.14 1.24a17.11 17.11 0 0 0 4.32 3.94q4.17.79 8.25 1.85a10.14 10.14 0 0 0-1.37-3.28c3.22 4.85 4.56 2.62 7.29 4.29l-5.18-7c.39.16.63.14.79 0-2.24-.75-4.49-1.45-6.77-2.11.22.66.45 1.32.72 2a13.87 13.87 0 0 1 1.54 3.16zm53.5 23.8c2.45 2.55 3.65 8 5 5.75l-2.73-4.45c2.66 1.07 2.63 6.57 4.92 5.11a10.5 10.5 0 0 1-1.14-3.63q-2.94-2.32-6-4.53a6.29 6.29 0 0 0-.05 1.75zm-83.67-34.77c-1.54-.2-3.08-.38-4.63-.55l2.91 1.5c1.33 1.06 1.62.28 1.72-.95zm149.44 154.21c0 .38.09.76.13 1.14a2.9 2.9 0 0 0 .29-.61zm-38.41 103.2a8.77 8.77 0 0 1 3.52 1.75l-.4 1.49a178.87 178.87 0 0 0 10.61-17.67 15.36 15.36 0 0 1-4.19-2 140.13 140.13 0 0 1-9.54 16.43zm-25.66-190.22.44.42v-.6a1.52 1.52 0 0 1-.44.18zm24.59 192.09c0-.08 0-.15-.05-.23A137.82 137.82 0 0 1 434.79 543c.53.32.87 0 1.56.6.1.63 1.6 2.41 1.33 3.3l-3-3.87a141.34 141.34 0 0 1-34.83 1.08 149.22 149.22 0 0 1-33.39-1.3 4.49 4.49 0 0 1-.26.54c-.68.18-.84-.13-.78-.7a133.3 133.3 0 0 1-18-4.22 2.11 2.11 0 0 0 .18.45l-.25-.48a124.56 124.56 0 0 1-52.92-32.54c1.26 5.71-6.72-2.16-8.39-1.13.31-3.61 2-.57 1.18-6.23l4.07 5a12.29 12.29 0 0 1-.43-1.49 133.6 133.6 0 0 1-17.15-24.24c-.53.48-1.41-.06-2.12.37l1.39 7.52c-1.94 2.33-1.5-2.86-2.4-4.6-1.64-1.53-1.55 1.35-1.51 3.41 1.16 1.85 2.35 3.68 3.59 5.48 1-.64 2.64.91 4.41 1.92a3.23 3.23 0 0 0-2.71.52q4.4 6.13 9.34 11.85l-.32-.56c.91 1.62 4 3.62 5.7 6.48a168.49 168.49 0 0 0 20.46 18.22c.36-1.13-.16-3.51-.33-4.71 3.4 6.11 3.72-.28 6.35 6.31a17.89 17.89 0 0 1 1.16 3.54 171.16 171.16 0 0 0 22 12.61l-1.45-1.72c.55-1.76 2.65-1.7 4.28-2a16.86 16.86 0 0 0 1.49 2.19 7.27 7.27 0 0 0 .07-1 6.21 6.21 0 0 0 .67 1.78 2.33 2.33 0 0 0 1 .56c1.45-.41 2.79-4.95 2-1.23v.38c.76-.52 1.54-.67 2.88 1.76 1 4-3.47-.54-2.53 3.07 2.84 1.17 5.72 2.26 8.62 3.27-1.26-2.35 2.83 1.35.27-2.8 1.23-.11 1.6 2.4 2.17 3.43h-.7a159.15 159.15 0 0 0 40.86 8.09q3.82-.09 7.62-.36c-2.5-4 1.85-1.63.44-5.9 1.39.86 2.52 3.63 2.74 5.63a152.76 152.76 0 0 0 18.61-2.92c-3.1-3.49-5.91-.25-9.22-8.26l-.7 3.83-1.84-4.35c1.07-4.12 5.79 2.51 9.5 2.23 1.8.91-.82-2.87 0-2.75 3 3.57.07 3.39 1.21 5.41 1.1 1.17 2.24 2.31 3.36 3.3 37.57-8.9 70.39-31.65 93.7-61.56v-.12h.09q2.85-3.66 5.51-7.46c-1.05-1.35-2.13-1.92-3.02-3.12zm-208.2 48.25c.7-3.84 3.25-.65 5-.37-.81.47-1.89 4.61-5 .37zM353 547l-.82-5.24 1.51 1.74zm32.74-1.64c.84.13.68-1.1 1.71.3.56 1 3.13 1.45 4 4.35-2.03-2.2-5.07-3.01-5.72-4.69zm68.36-296.45.1-.08-.15-.06zm92.9 70.92c-.32-.42-.66-.85-1-1.28l.49.93a3.44 3.44 0 0 1 .51.35z"
            transform="translate(-19.49 -25.72)" />
        <path class="cls-2"
            d="M347.29 559.26c-1.13-2-1.31-3.29-1.88-4.31 1.45 2.18 2.57 2.3 2.53.49a162.09 162.09 0 0 1-33.66-15.91c-.74 1.08-1.67 1.9-3.95-2.19l.38-.09a170.19 170.19 0 0 1-41.6-38.82 8.74 8.74 0 0 0-5.15 1 4.23 4.23 0 0 0-.19 1.38 192.63 192.63 0 0 0 37.46 36.66c.7-1.14.75-3.31 2.46-2.78 1.75 3.8-.1 3.53-1.71 3.35q7.18 5.29 14.89 9.94c-.57-2-1.82-4.12 0-3.09a22.62 22.62 0 0 1 1.89 4.2c.86.51 1.72 1 2.59 1.5l.05-.35a1.77 1.77 0 0 1 0 .39 194.18 194.18 0 0 0 19.71 9.78c-.42-3.21 4.29-.52 6.18-1.15zm-41.61-25.18 2.92 5.71c-1.8-.92-3.03-3.59-2.92-5.71zm133.44 27.61a10.81 10.81 0 0 0 1.57 3.13c-1.09.69-2.59-1.31-3.91-2.71l-1.83.27a10.55 10.55 0 0 0 1.84 1.46c-1 2-3.54 1.53-5.61 1.49-.28-.86-.56-1.64-.83-2.34a148.2 148.2 0 0 1-26.71.74 158.42 158.42 0 0 1-55.64-8.28c.4 3.23 2.63 2.6 4.76 3.8l-2.06-2.77c.69.1 2.27 2.42 3.13 2.29-.13-.49 0-.72.45-.48-.1.31-.26.46-.45.48a23.38 23.38 0 0 0 3.94 6.24c-2.18-.67-2.82-5.07-4.65-3.25 1.9 2.56 1.8 3.08 1.83 3.93A181.24 181.24 0 0 0 402 575q6.53-.57 12.9-1.49c.43-1.18 1.7-1 3-.47a217.4 217.4 0 0 0 28.1-6.36c-.21-.22-.47-.24-.83.13l.68-1.12c.23.31.45.58.66.84l1-.3c-.59-.68-1.22-1.48-1.9-2.44 1.74 1.63 2.59 2 3.22 2 1.15-.36 2.29-.74 3.43-1.12-1-1.23-1.93-2-1.31-1.52 2.82-1.78 6.48-3.61 10.36-1.72l2.19-.87-.25-1.72a4.42 4.42 0 0 0 1.36 1.27q2.5-1 5-2.09l-.79-1.31 1.3 1.08c1-.45 2.05-.91 3.07-1.38l-1.69-1.37 1.91-1.21.33 2.32A184 184 0 0 0 512 532.27l-3.69-2.33a154.07 154.07 0 0 1-69.19 31.75zm118.71-143.91c-2-.34-4.31-2.93-6.75-5.06a137.69 137.69 0 0 1-8.88 42.47l.63.11-.69.44.67 2.3-1.3-1.06c-.58 1.46-1.18 2.9-1.81 4.34.55.48 1.13 1 1.75 1.69-.21 1.5 1.69 3 0 2.75l.83 1.32c.75-1.47 1.47-2.95 2.18-4.43a4.47 4.47 0 0 0-1-.84c-.16.35-.34.67-.81.48.09-.62.4-.69.81-.48.25-.53.44-1.11 1.46-.09a167.32 167.32 0 0 0 13.3-42.33 5.42 5.42 0 0 1-1.87-.65zm-5.73 57.49a157.73 157.73 0 0 1-11.65 20c1.06.82 1.95 1.11 2.3-.22 2.35 4.69-.19 1.53.08 3.38.11.22.2.39.31.57a156.75 156.75 0 0 0 12.19-20.53 1.61 1.61 0 0 1 0-.22zm16.9-78.21c1.58 5.14-1.09 6.83 2.11 11.67-2.37-1.21-2.91.28-3.73 1.31a148.56 148.56 0 0 1-14.8 64.23 7.08 7.08 0 0 1 3.23 3.24 159.83 159.83 0 0 0 15.83-72.13c.05-1.62.07-3.23.08-4.84a17.75 17.75 0 0 1-2.72-3.48zM325.55 262.71c3.11 4.21-.2 1.5-1 1.38a24.13 24.13 0 0 1 3.3 6.38 135.11 135.11 0 0 1 15.69-7.74 12.35 12.35 0 0 0-2.05-2.51l-1.72 2.48c-1.8-.92.5-2.36-.63-4.39-.49 2.35-3-.2-3.84 2.39-1.21 1.34-3.66-1.88-5-5-1.54.85-3.06 1.74-4.57 2.64 1.44-.06 4.31 2.55 2.81-.9l3.31 2.7h-3.34l1.41 3.91c-1.44 1.59-3.1-4.17-4.9-5.1a.76.76 0 0 1 .11-.29q-2.46 1.49-4.85 3c2.05 1.42 4.37 3.11 5.27 1.05zM510.34 528.3c1 1.34 1.89 1.4 2.87 1.8l.27 1a166.11 166.11 0 0 0 27.79-29.45c-.82-1.16-1.63-2.59-2.46-4a161.45 161.45 0 0 1-28.47 30.65z"
            transform="translate(-19.49 -25.72)" />
        <path class="cls-2"
            d="M542.08 455.51c-.05.12-.1.24-.14.36l.2-.13zM344.69 561.89c.82.33 1.63.66 2.46 1-1-1-2.06-2-3.1-3-.8.2-.05 1.11.64 2zm-8.91-309.1-1.32.67a1.94 1.94 0 0 0 1.34-.63zm214.07 118.65 5.48 6.14c.12-3 1.11-3 2.46-1.88a158.94 158.94 0 0 0-4.15-18.37c-.47-1.12-.62-3-1.59-2.35l-.4 3 1 .77-4.65-3.25c3.42.59.42-5.73 1.39-7.7l1.7 1.39q-1.86-5.35-4.07-10.53l-1.67-1.35c.16-.45.49-.46.88-.43a161.45 161.45 0 0 0-7.4-14.62c-.92.23-1.62.63-.15 3.52-1 4.72-4.71-6.63-5.78-2.53.55 1 1.68 3 2.54 3.19.74 2.27-.86-.17-1.33-.54-.94-.76-2.81-5-1.67-5.78 5.13 8 1.64-2.59 3.77-2.3-.85-1.39-1.73-2.76-2.62-4.12-1.89-2-3.55-3.05-3.3.23l1 1.24c.46.2 1 .72 1.58 2l-1.58-2c-.89-.39-1.59.48-2.52-.28l1.31 3.27c.11.81-1.41.71-2.65.43l-.54-.13a3.65 3.65 0 0 1-1-.38c.32.12.67.27 1 .38l.54.13c.72.1 1.1-.32.3-2.33-1-1.41-3.12-4.21-4-4.36.67-1.11 2.47-.21 2-3.33l1 4.13 1.84-1.81a20.55 20.55 0 0 0-3.22-4.42c-.12-.06-.24-.1-.37-.18.07 0 .21 0 .37.18a3.52 3.52 0 0 0 3.21 0q-3.06-4.15-6.36-8.11c-.8-.05-1 .85.61 4.48-2.27-1.31-5.5-.64-8-3.22l5.11 6.4-4.82-3.17a1.12 1.12 0 0 1-.2.17l-1.9-1.52 2.1 1.38c1-1-1.91-3-2.26-5.38-1.86-.59-1.67 2.5-.84 6.74a155.07 155.07 0 0 1 9.56 12.36 2 2 0 0 0 .78-2.49c2.66 3.59 2.77 6.3 3.55 9.05.33.53.66 1.08 1 1.62 2.34.71.45-3.19 3.37.76h-2.08l1.6 2.42a1.34 1.34 0 0 1-.69.59c.54 1 1.08 1.91 1.61 2.88l.38-.19-.27.39a169.92 169.92 0 0 1 16.29 43.69c1.37-.22 3.33.07 2.75-3.88zM533.43 327c-.13-.32-.1-.26 0 0l4 4.95c-1.13 1.32-3.43-3.73-4-4.95zm4.1 8.34c1.34.53.4-3 2.47-.22.28 1.94-1.61.4-2.47.26zm4 3.09c-.22 0-.27.37 0 1.25-.34-1-.27-1.33 0-1.25.67-.08 2.87 2.66 3.37 1.83-.38-.7-.19-1.47-.54-2.47l-.85-1.44a4.4 4.4 0 0 1 .85 1.44l3.57 6.06c-1.24.3-5.33-5.08-6.39-5.38zM252.11 478.11c-.56 1.68-2.46 0-2.89.7 1 1.84 2.1 3.66 3.2 5.47a.72.72 0 0 1 .13-.28l.58 1.44 1.14 1.84h.73a4.73 4.73 0 0 0 .17-3.18c.73-1.63 1.31-2.8 1.83-3.71-.66-1.13-1.31-2.27-1.94-3.42-.21.8-.79 1.1-2.28 0 1.43-1.59-3.48-6.7-5.4-5.51 1.48 4-.57 1.39-1.26 1.52.69 1.36 1.41 2.72 2.14 4.08a3.68 3.68 0 0 1 3.85 1.05zm-2.87-11.18c-1.13-2-1.62.32-2.49.15.19-1.49 2-.55-.52-3.73a12.84 12.84 0 0 1 2.76 1.5 171.71 171.71 0 0 1-13.77-47.39l-1.14-.53a1.73 1.73 0 0 1 1.14.53c-.72-5.15-1.22-10.37-1.47-15.64v-3.35c-1.69-4.15-.83 2.51-3.25-.53l-.73-1.6c-.14 1.84-.26 3.68-.34 5.53a141.14 141.14 0 0 0 5.18 41.55l1.52 1.42a5 5 0 0 1-.67 1.54 158.41 158.41 0 0 0 8.42 22c2.12.43 4.9 1.03 5.36-1.45zm8.94 22.07c3.25 5.35 7 6.48 9.7 7.79q-4-5.34-7.56-11a7.91 7.91 0 0 0-2.14 3.21zm295.97-90.81c1.66 5.78 2.38-.82 3.87 3.71.52 0 1.23.11 2 .16 0-3.21-.1-6.4-.29-9.56a9.8 9.8 0 0 0-2-1.36c.29-.86 1-.91 1.83-.58-.11-1.51-.24-3-.39-4.53-.88 1.12-1.57 3-4-.82-.11 2.12-3.63.9-1.75 5.2-2.39-4.3-2 0-3.67-.4q.84 6 1.3 12.23a12.44 12.44 0 0 0 3.1-4.05zm-286.96 66.29-.13-.31-1.51-2.72c.41.68.74 1.19 1 1.55q-1.37-3.33-2.6-6.76a15.56 15.56 0 0 1-9.24-1.05q1.92 5.3 4.22 10.42a8.72 8.72 0 0 1 8.26-1.13zm-17.31-139.7A188 188 0 0 1 277.19 285a156.66 156.66 0 0 0-27.31 39.78z"
            transform="translate(-19.49 -25.72)" />
    </g>
</svg>